<?xml version="1.0" encoding="utf-8"?>
<!-- Generator: Adobe Illustrator 27.0.1, SVG Export Plug-In . SVG Version: 6.00 Build 0)  -->
<svg version="1.1" xmlns="http://www.w3.org/2000/svg" xmlns:xlink="http://www.w3.org/1999/xlink" x="0px" y="0px"
	 viewBox="0 0 1000 800" style="enable-background:new 0 0 1000 800;" xml:space="preserve">
<style type="text/css">
	.st0{fill:#414042;}
	.st1{fill:#FAA721;}
	.st2{fill:#8299CE;}
	.st3{fill:#05B3A2;}
	.st4{fill:#1891D0;}
	.st5{fill:#EE3C96;}
	.st6{fill:#86328C;}
	.st7{fill:#B2D235;}
	.st8{fill:#C49A6C;}
	.st9{fill:#21409A;}
</style>
<g id="Layer_2">
</g>
<g id="Layer_1">
	<g id="New_Symbol">
	</g>
	<g id="New_Symbol_3">
	</g>
	<g id="XMLID_4240_">
		
			<rect id="XMLID_10697_" x="674.1" y="440.2" transform="matrix(0.1848 -0.9828 0.9828 0.1848 160.84 1080.2252)" class="st0" width="115" height="6"/>
		<g id="XMLID_10693_">
			<path id="XMLID_10694_" class="st0" d="M407.1,178.8l-20.3,127.6l93.9-25.1l29.9-120.2L629.3,194l-27.6,152.2l-161.2,59.7
				l66.9,117.4l37.6-98.8l117.4,31.5L544.8,638.4l-202.7-60.6l-0.6-0.9l-63.6-96.6l-11.7-124.2l105.2,123.1L311,257.7L407.1,178.8z
				 M485.5,286l-105.7,28.2l19.3-121.4l-81.7,67l66.2,242.6l-110-128.8l9.8,104.8l62.3,94.6l196.6,58.8l110.9-172.1l-104.8-28.1
				l-40.1,105.3l-76.2-133.8L596.7,342l26.1-143.9l-107.9-30L485.5,286z"/>
		</g>
		<g id="XMLID_10681_">
			<path id="XMLID_10682_" class="st0" d="M396.2,172.8l87.6,107.1L627,192.1l63,104l18.9-25.5L745.6,388l6,9.8l-18.9-6.3
				l-95.4,20.2l22.7,44.1l65.1,43.1l-74.2,92.8L543,638.4l-61-53.1l-34.9,46.9l-4.6-3.4l35.1-47.2L392,507.1l-114.5-25.6l33.9-223.3
				l5.7,0.9l-33.1,218l99,22.1l-9.2-8l61.3-90.1l32.8,7L396.2,172.8z M482.5,287.4l-72.4-88.5l64.1,210.8l72.5,15.5l56.2-11.9
				l16.9-22.8l-26.4-51.3l51.7,17.2l41.1-55.3L625.1,200L482.5,287.4z M469.7,414.5l-32.1-6.9l-56.3,82.7l13.3,11.6l109.1,24.3
				L469.7,414.5z M733.2,367.6l-26.4-84.5l-13.6,18.3L733.2,367.6z M737,384.8l-47.5-78.4l-38.6,51.9l82.2,27.4L737,384.8z
				 M641.6,361.2L604.9,349l18.7,36.3L641.6,361.2z M597.7,420.2L546.7,431l-70.6-15.1L512,533.9l-108.3-24.2l77.4,67.3L597.7,420.2
				z M722,388l-74.7-24.9L626.6,391l8,15.5L722,388z M628.7,407.7l-6-11.6l-11.4,15.3L628.7,407.7z M631.5,413l-25.3,5.3
				L485.4,580.8l58.7,51l103.3-44.6l69.4-86.8l-61.2-40.5L631.5,413z"/>
		</g>
		<g id="XMLID_10678_">
			<path id="XMLID_10679_" class="st1" d="M431.4,630.9c-0.2-7.4,5.6-13.6,13-13.8c7.4-0.2,13.6,5.6,13.8,13
				c0.2,7.4-5.6,13.6-13,13.8C437.8,644.2,431.7,638.3,431.4,630.9z"/>
		</g>
		<g id="XMLID_10676_">
			<path id="XMLID_10677_" class="st2" d="M331.9,569.5c3.3-6.6,11.3-9.4,18-6.1c6.6,3.3,9.4,11.3,6.1,18c-3.3,6.6-11.3,9.4-18,6.1
				C331.3,584.2,328.6,576.1,331.9,569.5z"/>
		</g>
		<g id="XMLID_10674_">
			<path id="XMLID_10675_" class="st3" d="M272.9,468.5c6-4.3,14.4-3,18.7,3.1c4.3,6,3,14.4-3.1,18.7c-6,4.3-14.4,3-18.7-3.1
				C265.5,481.2,266.8,472.8,272.9,468.5z"/>
		</g>
		<g id="XMLID_10672_">
			<path id="XMLID_10673_" class="st4" d="M268.1,351.6c7.3-1,14.1,4.1,15.1,11.5c1,7.3-4.1,14.1-11.5,15.1
				c-7.3,1-14.1-4.1-15.1-11.5C255.7,359.3,260.8,352.6,268.1,351.6z"/>
		</g>
		<g id="XMLID_10670_">
			<path id="XMLID_10671_" class="st5" d="M318.9,246.2c6.9,2.6,10.5,10.3,7.9,17.2c-2.6,6.9-10.3,10.5-17.2,7.9
				c-6.9-2.6-10.5-10.3-7.9-17.2C304.2,247.1,311.9,243.6,318.9,246.2z"/>
		</g>
		<g id="XMLID_10668_">
			<path id="XMLID_10669_" class="st6" d="M413.1,176.9c4.9,5.5,4.4,14-1.1,18.9c-5.5,4.9-14,4.4-18.9-1.1c-4.9-5.5-4.4-14,1.1-18.9
				C399.7,170.9,408.2,171.4,413.1,176.9z"/>
		</g>
		<g id="XMLID_10666_">
			<path id="XMLID_10667_" class="st2" d="M528.9,160c1.8,7.2-2.7,14.4-9.8,16.2c-7.2,1.8-14.4-2.7-16.2-9.8
				c-1.8-7.2,2.7-14.4,9.8-16.2C519.9,148.4,527.1,152.8,528.9,160z"/>
		</g>
		<g id="XMLID_10664_">
			<path id="XMLID_10665_" class="st7" d="M639,199.4c-1.8,7.2-9.1,11.5-16.3,9.7c-7.2-1.8-11.5-9.1-9.7-16.3
				c1.8-7.2,9.1-11.5,16.3-9.7C636.5,184.9,640.9,192.2,639,199.4z"/>
		</g>
		<g id="XMLID_10662_">
			<path id="XMLID_10663_" class="st1" d="M717.8,285.9c-5,5.5-13.5,5.9-18.9,0.9c-5.5-5-5.9-13.5-0.9-18.9c5-5.5,13.5-5.9,18.9-0.9
				C722.4,272,722.8,280.4,717.8,285.9z"/>
		</g>
		<g id="XMLID_10660_">
			<path id="XMLID_10661_" class="st7" d="M746.7,399.3c-7,2.5-14.6-1.1-17.1-8.1c-2.5-7,1.1-14.6,8.1-17.1c7-2.5,14.6,1.1,17.1,8.1
				C757.3,389.1,753.7,396.8,746.7,399.3z"/>
		</g>
		<g id="XMLID_10658_">
			<path id="XMLID_10659_" class="st4" d="M719,512.9c-7.3-1.1-12.4-7.9-11.3-15.2c1.1-7.3,7.9-12.4,15.2-11.3
				c7.3,1.1,12.4,7.9,11.3,15.2C733.1,508.9,726.3,514,719,512.9z"/>
		</g>
		<g id="XMLID_10656_">
			<path id="XMLID_10657_" class="st3" d="M641.2,600.3c-6-4.4-7.3-12.8-2.9-18.7c4.4-6,12.8-7.3,18.7-2.9c6,4.4,7.3,12.8,2.9,18.7
				C655.6,603.4,647.2,604.7,641.2,600.3z"/>
		</g>
		<g id="XMLID_10654_">
			<path id="XMLID_10655_" class="st6" d="M531.5,640.9c-3.2-6.7-0.4-14.7,6.3-17.9c6.7-3.2,14.7-0.4,17.9,6.3
				c3.2,6.7,0.4,14.7-6.3,17.9C542.7,650.4,534.7,647.6,531.5,640.9z"/>
		</g>
		<path id="XMLID_10652_" class="st5" d="M492.7,537.4c-4-8.4-0.5-18.5,7.9-22.5c8.4-4,18.5-0.5,22.5,7.9c4,8.4,0.5,18.5-7.9,22.5
			C506.8,549.3,496.7,545.8,492.7,537.4z"/>
		<path id="XMLID_10651_" class="st2" d="M642.6,465.2c-4-8.4-0.5-18.5,7.9-22.5c8.4-4,18.5-0.5,22.5,7.9c4,8.4,0.5,18.5-7.9,22.5
			C656.7,477.1,646.6,473.6,642.6,465.2z"/>
		<path id="XMLID_10650_" class="st5" d="M584,351.4c-4-8.4-0.5-18.5,7.9-22.5c8.4-4,18.5-0.5,22.5,7.9c4,8.4,0.5,18.5-7.9,22.5
			C598.1,363.3,588,359.8,584,351.4z"/>
		<path id="XMLID_10649_" class="st1" d="M531.5,435.4c-4-8.4-0.5-18.5,7.9-22.5c8.4-4,18.5-0.5,22.5,7.9c4,8.4,0.5,18.5-7.9,22.5
			C545.6,447.3,535.5,443.8,531.5,435.4z"/>
		<path id="XMLID_10648_" class="st7" d="M467.9,290.9c-4-8.4-0.5-18.5,7.9-22.5c8.4-4,18.5-0.5,22.5,7.9c4,8.4,0.5,18.5-7.9,22.5
			C482.1,302.9,472,299.3,467.9,290.9z"/>
		<path id="XMLID_10647_" class="st8" d="M368.1,317.6c-4-8.4-0.5-18.5,7.9-22.5c8.4-4,18.5-0.5,22.5,7.9c4,8.4,0.5,18.5-7.9,22.5
			C382.2,329.5,372.2,326,368.1,317.6z"/>
		<path id="XMLID_10646_" class="st4" d="M421.1,411.7c-4-8.4-0.5-18.5,7.9-22.5c8.4-4,18.5-0.5,22.5,7.9c4,8.4,0.5,18.5-7.9,22.5
			C435.2,423.6,425.2,420.1,421.1,411.7z"/>
		<path id="XMLID_10645_" class="st9" d="M362.4,498.1c-4-8.4-0.5-18.5,7.9-22.5c8.4-4,18.5-0.5,22.5,7.9c4,8.4,0.5,18.5-7.9,22.5
			C376.5,510,366.4,506.5,362.4,498.1z"/>
	</g>
</g>
</svg>
